<svg version="1.1" id="Layer_1" xmlns="http://www.w3.org/2000/svg" xmlns:xlink="http://www.w3.org/1999/xlink" x="0px" y="0px"
	 width="100%" viewBox="0 0 500 500" enable-background="new 0 0 500 500" xml:space="preserve">
<path fill="#FFFFFF" opacity="1.000000" stroke="none" 
	d="
M231.000000,501.000000 
	C154.000015,501.000000 77.500038,501.000000 1.000041,501.000000 
	C1.000027,334.333405 1.000027,167.666779 1.000014,1.000131 
	C167.666565,1.000087 334.333130,1.000087 500.999756,1.000044 
	C500.999847,167.666519 500.999847,334.333038 500.999939,500.999786 
	C411.166656,501.000000 321.333344,501.000000 231.000000,501.000000 
M397.885986,285.018829 
	C398.632263,283.767609 399.978760,282.539948 400.029022,281.261383 
	C400.400574,271.806000 400.693787,262.339569 400.646851,252.878433 
	C400.614258,246.304916 403.760681,241.812973 409.585938,240.038330 
	C414.775513,238.457413 420.423096,238.379883 426.430267,237.562454 
	C426.824310,233.911499 427.334412,229.185165 427.870667,224.216751 
	C416.980560,221.118439 407.553497,222.303055 400.255890,232.142670 
	C399.608551,229.007339 399.106812,226.577225 398.503876,223.287811 
	C395.950623,214.347031 394.061249,205.150070 390.727539,196.510437 
	C377.357727,161.861542 353.853912,135.730621 321.215546,118.430244 
	C291.884644,102.883003 260.458984,97.448189 227.388824,102.895958 
	C193.522491,108.474876 164.924393,123.840019 141.285339,148.604034 
	C127.293427,163.261810 117.376114,180.452515 109.239410,198.952576 
	C102.110374,195.359482 95.594818,198.119873 94.522385,205.187607 
	C93.608467,211.210556 97.456673,215.197388 104.935013,216.837616 
	C104.414497,219.193130 103.893990,221.548660 102.584259,224.085358 
	C100.285240,224.085358 97.986214,224.085358 95.425613,224.085358 
	C95.425613,244.531219 95.425613,264.577576 95.425613,285.170990 
	C98.746078,285.170990 101.871620,285.170990 105.075821,285.933929 
	C110.350639,308.337860 119.986862,328.796082 134.976425,346.152435 
	C172.804428,389.953278 220.803299,407.800354 277.942047,398.512390 
	C336.128815,389.054108 383.906616,342.892548 397.885986,285.018829 
M6.848072,283.347839 
	C7.303082,283.891266 7.749088,284.898438 8.214479,284.907471 
	C13.830842,285.016541 19.450068,284.978119 25.318350,284.978119 
	C25.318350,278.035522 25.834696,271.512909 25.179995,265.110046 
	C24.456913,258.038422 27.503975,253.596039 33.179527,249.935623 
	C42.526787,260.693604 51.767143,271.392151 61.111591,281.998993 
	C62.219749,283.256866 63.861462,284.801514 65.316742,284.867371 
	C72.056831,285.172302 78.818413,285.002136 86.537086,285.002136 
	C72.165649,268.799713 58.440983,253.326477 43.595966,236.590149 
	C56.836792,223.577850 69.805504,210.832977 82.815636,198.047394 
	C76.585884,198.047394 70.263107,197.848404 63.965755,198.161224 
	C61.912735,198.263199 59.434723,199.196198 57.988255,200.607285 
	C48.214485,210.141953 38.672710,219.914230 29.032183,229.586029 
	C28.090090,230.531204 26.987490,231.316376 25.258411,232.761780 
	C25.258411,220.633026 25.258411,209.554214 25.258411,198.292648 
	C18.995138,198.292648 13.091607,198.292648 6.841459,198.292648 
	C6.841459,226.481674 6.841459,254.426880 6.848072,283.347839 
M442.385834,245.216690 
	C446.766327,253.986542 450.993042,262.838501 455.608459,271.482910 
	C457.283539,274.620178 457.251678,277.146027 455.764313,280.286102 
	C451.310822,289.688019 447.148651,299.227905 442.652802,309.201996 
	C447.835541,309.201996 452.343750,308.932068 456.801819,309.289062 
	C460.249176,309.565125 461.708557,308.188873 463.048431,305.179535 
	C474.467041,279.533539 486.068359,253.968948 497.597076,228.371933 
	C498.167816,227.104645 498.572662,225.762619 499.177399,224.122833 
	C496.894135,224.122833 495.174286,224.404831 493.580017,224.076736 
	C483.761017,222.056076 478.441223,226.079834 475.620636,235.621170 
	C473.617157,242.398560 469.858978,248.657211 466.583740,255.802353 
	C461.019653,244.672180 455.897156,234.425278 450.800934,224.231018 
	C444.592499,224.231018 438.622559,224.231018 432.031677,224.231018 
	C435.481201,231.219772 438.769958,237.882721 442.385834,245.216690 
z"/>
<path fill="#FE6B00" opacity="1.000000" stroke="none" 
	d="
M103.373474,223.904175 
	C103.893990,221.548660 104.414497,219.193130 105.292297,216.295090 
	C113.755447,212.293213 115.192711,206.761536 109.954361,199.184586 
	C117.376114,180.452515 127.293427,163.261810 141.285339,148.604034 
	C164.924393,123.840019 193.522491,108.474876 227.388824,102.895958 
	C260.458984,97.448189 291.884644,102.883003 321.215546,118.430244 
	C353.853912,135.730621 377.357727,161.861542 390.727539,196.510437 
	C394.061249,205.150070 395.950623,214.347031 398.039032,223.702332 
	C392.843628,224.116837 388.113068,224.116837 383.432617,224.116837 
	C383.432617,244.816818 383.432617,264.674988 383.432617,285.173676 
	C388.124023,285.173676 392.560211,285.173676 396.996429,285.173676 
	C383.906616,342.892548 336.128815,389.054108 277.942047,398.512390 
	C220.803299,407.800354 172.804428,389.953278 134.976425,346.152435 
	C119.986862,328.796082 110.350639,308.337860 105.484482,285.483215 
	C107.833809,285.032471 109.774475,285.032471 111.701508,285.032471 
	C111.701508,264.437103 111.701508,244.403778 111.701508,224.292603 
	C108.663162,224.150894 106.018318,224.027542 103.373474,223.904175 
M181.515427,276.996857 
	C182.530167,275.680298 183.678879,274.445343 184.538422,273.034241 
	C191.298965,261.935547 192.011230,250.410706 186.156570,238.816208 
	C180.922714,228.451157 172.213028,222.522141 160.569229,222.735153 
	C154.188889,222.851852 147.847275,225.085632 141.077347,226.447418 
	C137.135880,221.266144 130.782089,225.261536 125.317963,224.128433 
	C125.317963,252.911530 125.317963,280.957855 125.317963,308.860626 
	C130.961823,308.860626 136.216827,308.860626 142.077118,308.860626 
	C142.077118,299.387482 142.077118,290.228027 142.077118,280.768890 
	C157.834854,289.204651 169.836288,288.080444 181.515427,276.996857 
M318.367249,285.004700 
	C321.621918,285.597290 322.162689,283.966888 322.143616,281.069427 
	C322.026276,263.243958 322.092438,245.417252 322.063599,227.591019 
	C322.061829,226.501434 321.769287,225.412323 321.522400,223.702087 
	C316.106171,226.101807 308.285309,219.658905 305.746613,229.447388 
	C292.063782,217.516174 273.408386,222.617706 264.943817,232.439423 
	C254.134445,244.981934 254.477890,265.062866 265.636444,277.289001 
	C274.283722,286.763611 293.629730,290.996155 305.782562,279.273254 
	C306.446899,281.164856 307.085205,282.982422 307.795502,285.004913 
	C311.115234,285.004913 314.263855,285.004913 318.367249,285.004700 
M197.600052,269.497406 
	C197.600052,274.567902 197.600052,279.638367 197.600052,284.686035 
	C216.083252,284.686035 233.803146,284.686035 251.613983,284.686035 
	C251.613983,279.125763 251.613983,273.883972 251.613983,267.981995 
	C239.668289,267.981995 227.983582,267.981995 215.794846,267.981995 
	C215.794846,244.291824 215.794846,221.262451 215.794846,198.354965 
	C209.499252,198.354965 203.734329,198.354965 197.599701,198.354965 
	C197.599701,221.939072 197.599701,245.218857 197.600052,269.497406 
M339.506287,224.116882 
	C337.404724,224.116882 335.303192,224.116882 333.243347,224.116882 
	C333.243347,244.783066 333.243347,264.794922 333.243347,284.691040 
	C338.893860,284.691040 344.139679,284.691040 349.783691,284.691040 
	C349.783691,274.429352 349.754669,264.478607 349.792816,254.528137 
	C349.823639,246.493240 353.462646,241.067123 361.222565,239.140976 
	C365.744202,238.018631 370.631866,238.370880 375.863556,238.026138 
	C376.288696,233.964966 376.782928,229.244003 377.306335,224.244217 
	C366.530060,221.168030 357.317535,222.323746 349.864014,231.898407 
	C349.039398,228.826782 348.423492,226.532516 347.774994,224.116943 
	C345.094940,224.116943 342.773376,224.116943 339.506287,224.116882 
z"/>
<path fill="#020202" opacity="1.000000" stroke="none" 
	d="
M6.844766,282.859955 
	C6.841459,254.426880 6.841459,226.481674 6.841459,198.292648 
	C13.091607,198.292648 18.995138,198.292648 25.258411,198.292648 
	C25.258411,209.554214 25.258411,220.633026 25.258411,232.761780 
	C26.987490,231.316376 28.090090,230.531204 29.032183,229.586029 
	C38.672710,219.914230 48.214485,210.141953 57.988255,200.607285 
	C59.434723,199.196198 61.912735,198.263199 63.965755,198.161224 
	C70.263107,197.848404 76.585884,198.047394 82.815636,198.047394 
	C69.805504,210.832977 56.836792,223.577850 43.595966,236.590149 
	C58.440983,253.326477 72.165649,268.799713 86.537086,285.002136 
	C78.818413,285.002136 72.056831,285.172302 65.316742,284.867371 
	C63.861462,284.801514 62.219749,283.256866 61.111591,281.998993 
	C51.767143,271.392151 42.526787,260.693604 33.179527,249.935623 
	C27.503975,253.596039 24.456913,258.038422 25.179995,265.110046 
	C25.834696,271.512909 25.318350,278.035522 25.318350,284.978119 
	C19.450068,284.978119 13.830842,285.016541 8.214479,284.907471 
	C7.749088,284.898438 7.303082,283.891266 6.844766,282.859955 
z"/>
<path fill="#040404" opacity="1.000000" stroke="none" 
	d="
M442.222260,244.881195 
	C438.769958,237.882721 435.481201,231.219772 432.031677,224.231018 
	C438.622559,224.231018 444.592499,224.231018 450.800934,224.231018 
	C455.897156,234.425278 461.019653,244.672180 466.583740,255.802353 
	C469.858978,248.657211 473.617157,242.398560 475.620636,235.621170 
	C478.441223,226.079834 483.761017,222.056076 493.580017,224.076736 
	C495.174286,224.404831 496.894135,224.122833 499.177399,224.122833 
	C498.572662,225.762619 498.167816,227.104645 497.597076,228.371933 
	C486.068359,253.968948 474.467041,279.533539 463.048431,305.179535 
	C461.708557,308.188873 460.249176,309.565125 456.801819,309.289062 
	C452.343750,308.932068 447.835541,309.201996 442.652802,309.201996 
	C447.148651,299.227905 451.310822,289.688019 455.764313,280.286102 
	C457.251678,277.146027 457.283539,274.620178 455.608459,271.482910 
	C450.993042,262.838501 446.766327,253.986542 442.222260,244.881195 
z"/>
<path fill="#070402" opacity="1.000000" stroke="none" 
	d="
M397.441223,285.096252 
	C392.560211,285.173676 388.124023,285.173676 383.432617,285.173676 
	C383.432617,264.674988 383.432617,244.816818 383.432617,224.116837 
	C388.113068,224.116837 392.843628,224.116837 398.089630,224.131973 
	C399.106812,226.577225 399.608551,229.007339 400.255890,232.142670 
	C407.553497,222.303055 416.980560,221.118439 427.870667,224.216751 
	C427.334412,229.185165 426.824310,233.911499 426.430267,237.562454 
	C420.423096,238.379883 414.775513,238.457413 409.585938,240.038330 
	C403.760681,241.812973 400.614258,246.304916 400.646851,252.878433 
	C400.693787,262.339569 400.400574,271.806000 400.029022,281.261383 
	C399.978760,282.539948 398.632263,283.767609 397.441223,285.096252 
z"/>
<path fill="#050404" opacity="1.000000" stroke="none" 
	d="
M102.978867,223.994766 
	C106.018318,224.027542 108.663162,224.150894 111.701508,224.292603 
	C111.701508,244.403778 111.701508,264.437103 111.701508,285.032471 
	C109.774475,285.032471 107.833809,285.032471 105.445160,285.101746 
	C101.871620,285.170990 98.746078,285.170990 95.425613,285.170990 
	C95.425613,264.577576 95.425613,244.531219 95.425613,224.085358 
	C97.986214,224.085358 100.285240,224.085358 102.978867,223.994766 
z"/>
<path fill="#090705" opacity="1.000000" stroke="none" 
	d="
M109.596886,199.068573 
	C115.192711,206.761536 113.755447,212.293213 105.327286,215.900208 
	C97.456673,215.197388 93.608467,211.210556 94.522385,205.187607 
	C95.594818,198.119873 102.110374,195.359482 109.596886,199.068573 
z"/>
<path fill="#030100" opacity="1.000000" stroke="none" 
	d="
M181.263489,277.253265 
	C169.836288,288.080444 157.834854,289.204651 142.077118,280.768890 
	C142.077118,290.228027 142.077118,299.387482 142.077118,308.860626 
	C136.216827,308.860626 130.961823,308.860626 125.317963,308.860626 
	C125.317963,280.957855 125.317963,252.911530 125.317963,224.128433 
	C130.782089,225.261536 137.135880,221.266144 141.077347,226.447418 
	C147.847275,225.085632 154.188889,222.851852 160.569229,222.735153 
	C172.213028,222.522141 180.922714,228.451157 186.156570,238.816208 
	C192.011230,250.410706 191.298965,261.935547 184.538422,273.034241 
	C183.678879,274.445343 182.530167,275.680298 181.263489,277.253265 
M173.662872,256.109650 
	C173.539185,254.464172 173.594421,252.781616 173.262527,251.179276 
	C171.240143,241.415146 163.126297,236.138809 153.228180,238.063568 
	C144.936340,239.675980 140.329529,248.239914 142.206436,258.552704 
	C143.836929,267.511566 151.365921,272.815369 160.582962,270.993256 
	C168.133835,269.500488 172.042709,264.205536 173.662872,256.109650 
z"/>
<path fill="#030100" opacity="1.000000" stroke="none" 
	d="
M317.889862,285.004822 
	C314.263855,285.004913 311.115234,285.004913 307.795502,285.004913 
	C307.085205,282.982422 306.446899,281.164856 305.782562,279.273254 
	C293.629730,290.996155 274.283722,286.763611 265.636444,277.289001 
	C254.477890,265.062866 254.134445,244.981934 264.943817,232.439423 
	C273.408386,222.617706 292.063782,217.516174 305.746613,229.447388 
	C308.285309,219.658905 316.106171,226.101807 321.522400,223.702087 
	C321.769287,225.412323 322.061829,226.501434 322.063599,227.591019 
	C322.092438,245.417252 322.026276,263.243958 322.143616,281.069427 
	C322.162689,283.966888 321.621918,285.597290 317.889862,285.004822 
M276.635864,264.719025 
	C277.418091,265.580200 278.124786,266.527802 278.994934,267.288391 
	C284.346313,271.966095 292.026398,272.659668 298.037933,269.061066 
	C304.031708,265.473145 306.689270,257.512085 304.698639,249.107925 
	C303.029755,242.062103 298.274780,238.256378 290.787384,237.739243 
	C284.322479,237.292709 279.360992,239.857346 276.031342,245.236084 
	C272.175751,251.464340 272.406555,257.859253 276.635864,264.719025 
z"/>
<path fill="#020100" opacity="1.000000" stroke="none" 
	d="
M197.599884,268.998016 
	C197.599701,245.218857 197.599701,221.939072 197.599701,198.354965 
	C203.734329,198.354965 209.499252,198.354965 215.794846,198.354965 
	C215.794846,221.262451 215.794846,244.291824 215.794846,267.981995 
	C227.983582,267.981995 239.668289,267.981995 251.613983,267.981995 
	C251.613983,273.883972 251.613983,279.125763 251.613983,284.686035 
	C233.803146,284.686035 216.083252,284.686035 197.600052,284.686035 
	C197.600052,279.638367 197.600052,274.567902 197.599884,268.998016 
z"/>
<path fill="#040200" opacity="1.000000" stroke="none" 
	d="
M339.979065,224.116913 
	C342.773376,224.116943 345.094940,224.116943 347.774994,224.116943 
	C348.423492,226.532516 349.039398,228.826782 349.864014,231.898407 
	C357.317535,222.323746 366.530060,221.168030 377.306335,224.244217 
	C376.782928,229.244003 376.288696,233.964966 375.863556,238.026138 
	C370.631866,238.370880 365.744202,238.018631 361.222565,239.140976 
	C353.462646,241.067123 349.823639,246.493240 349.792816,254.528137 
	C349.754669,264.478607 349.783691,274.429352 349.783691,284.691040 
	C344.139679,284.691040 338.893860,284.691040 333.243347,284.691040 
	C333.243347,264.794922 333.243347,244.783066 333.243347,224.116882 
	C335.303192,224.116882 337.404724,224.116882 339.979065,224.116913 
z"/>
<path fill="#FB6900" opacity="1.000000" stroke="none" 
	d="
M173.590591,256.505615 
	C172.042709,264.205536 168.133835,269.500488 160.582962,270.993256 
	C151.365921,272.815369 143.836929,267.511566 142.206436,258.552704 
	C140.329529,248.239914 144.936340,239.675980 153.228180,238.063568 
	C163.126297,236.138809 171.240143,241.415146 173.262527,251.179276 
	C173.594421,252.781616 173.539185,254.464172 173.590591,256.505615 
z"/>
<path fill="#FB6900" opacity="1.000000" stroke="none" 
	d="
M276.411530,264.422302 
	C272.406555,257.859253 272.175751,251.464340 276.031342,245.236084 
	C279.360992,239.857346 284.322479,237.292709 290.787384,237.739243 
	C298.274780,238.256378 303.029755,242.062103 304.698639,249.107925 
	C306.689270,257.512085 304.031708,265.473145 298.037933,269.061066 
	C292.026398,272.659668 284.346313,271.966095 278.994934,267.288391 
	C278.124786,266.527802 277.418091,265.580200 276.411530,264.422302 
z"/>
</svg>